M48
INCH
T01C0.0191
T02C0.0354
T03C0.0394
T04C0.0433
T05C0.0472
T06C0.0512
T07C0.0551
T08C0.1811
%
T01
X+023750Y-075125
X+020740Y-066750
X+023750Y-065875
X+031250Y-066125
X+034250Y-073750
X+013250Y-081500
T02
X+022000Y-082000
X+022000Y-084000
X+027500Y-084000
X+027500Y-082000
X+036500Y-081000
X+036500Y-079000
X+035250Y-073250
X+035250Y-071250
X+036500Y-067000
X+036500Y-065000
X+027750Y-062750
X+025750Y-062750
X+025750Y-060250
X+027750Y-060250
X+016750Y-060250
X+014750Y-060250
X+014750Y-062750
X+016750Y-062750
X+011000Y-071250
X+011000Y-073250
X+011250Y-079500
X+011250Y-080500
X+011250Y-081500
X+011250Y-082500
X+016500Y-082000
X+016500Y-084000
T03
X+024750Y-081750
X+024750Y-079750
X+023750Y-079750
X+022750Y-079750
X+021750Y-079750
X+020750Y-079750
X+019250Y-081750
X+019250Y-084250
X+021250Y-085250
X+022250Y-085250
X+024750Y-084250
X+025750Y-085250
X+026750Y-085250
X+030250Y-084250
X+030250Y-081750
X+030250Y-076500
X+029250Y-076500
X+028250Y-076500
X+027250Y-076500
X+026250Y-076500
X+025250Y-076500
X+025250Y-075750
X+024250Y-076500
X+023250Y-076500
X+022250Y-076500
X+021250Y-076500
X+020250Y-076500
X+019250Y-076500
X+018250Y-076500
X+017250Y-076500
X+016250Y-076500
X+015250Y-076500
X+014250Y-076500
X+013250Y-076500
X+012250Y-076500
X+012250Y-079500
X+012250Y-080500
X+012250Y-081500
X+012250Y-082500
X+015250Y-072750
X+016250Y-072750
X+016250Y-071750
X+016250Y-070750
X+015250Y-070750
X+014250Y-070750
X+014250Y-071750
X+015250Y-071750
X+019250Y-071750
X+019250Y-072750
X+019250Y-070750
X+021250Y-070750
X+021250Y-071750
X+021250Y-072750
X+023250Y-071750
X+023250Y-070750
X+026250Y-070750
X+026250Y-071750
X+027375Y-071750
X+028125Y-071750
X+029250Y-071750
X+030250Y-071750
X+031250Y-071750
X+031250Y-072750
X+030250Y-072750
X+030250Y-070750
X+031250Y-070750
X+031250Y-067500
X+032250Y-067500
X+033250Y-067500
X+032750Y-065250
X+033750Y-065250
X+036500Y-064000
X+036500Y-063000
X+036500Y-062000
X+036500Y-061000
X+036500Y-060000
X+030250Y-067500
X+029250Y-067500
X+028250Y-067500
X+027250Y-067500
X+026250Y-067500
X+025250Y-067500
X+024250Y-067500
X+023250Y-067500
X+023250Y-066500
X+022250Y-066500
X+022250Y-067500
X+021250Y-067500
X+020250Y-067500
X+019250Y-067500
X+018250Y-067500
X+017250Y-067500
X+016250Y-067500
X+015250Y-067500
X+014250Y-067500
X+013250Y-067500
X+012250Y-067500
X+013250Y-066500
X+014250Y-066500
X+019750Y-057875
X+027375Y-070750
X+027375Y-072750
X+031250Y-076500
X+032250Y-076500
X+033250Y-076500
X+036625Y-076000
X+036625Y-077000
X+036625Y-078000
X+036625Y-075000
X+036625Y-074000
T04
X+013250Y-077875
X+014250Y-077875
X+011000Y-076500
X+011000Y-075500
X+019750Y-078750
X+020750Y-078750
X+021750Y-078750
X+022750Y-078750
X+023750Y-078750
X+024750Y-078750
X+025750Y-078750
X+026750Y-078750
X+037750Y-079000
X+037750Y-080000
X+037750Y-078000
X+037750Y-077000
X+037750Y-076000
X+037750Y-075000
X+037750Y-074000
X+037750Y-066000
X+037750Y-065000
X+037750Y-064000
X+037750Y-063000
X+037750Y-062000
X+037750Y-061000
X+037750Y-060000
X+033750Y-059000
X+032750Y-059000
X+031750Y-059000
X+030750Y-059000
X+029750Y-059000
X+028750Y-059000
X+027750Y-059000
X+026750Y-059000
X+026750Y-061500
X+027750Y-061500
X+028750Y-061500
X+029750Y-061500
X+030750Y-061500
X+031750Y-061500
X+032750Y-061500
X+033750Y-061500
X+033750Y-064000
X+032750Y-064000
X+031750Y-064000
X+030750Y-064000
X+029750Y-064000
X+028750Y-064000
X+027750Y-064000
X+026750Y-064000
X+022750Y-064000
X+021750Y-064000
X+020750Y-064000
X+019750Y-064000
X+018750Y-064000
X+017750Y-064000
X+016750Y-064000
X+015750Y-064000
X+015750Y-061500
X+016750Y-061500
X+017750Y-061500
X+018750Y-061500
X+019750Y-061500
X+020750Y-061500
X+021750Y-061500
X+022750Y-061500
X+022750Y-059000
X+021750Y-059000
X+020750Y-059000
X+019750Y-059000
X+018750Y-059000
X+017750Y-059000
X+016750Y-059000
X+015750Y-059000
T05
X+033750Y-086500
X+032750Y-086500
X+031750Y-086500
X+030000Y-086500
X+029000Y-086500
X+028000Y-086500
X+016500Y-086500
X+015500Y-086500
X+014500Y-086500
T06
X+013250Y-070687
X+013250Y-074813
X+019250Y-086500
X+020250Y-086500
X+021250Y-086500
X+023750Y-086500
X+024750Y-086500
X+025750Y-086500
X+031250Y-083563
X+035250Y-083563
X+035250Y-079437
X+031250Y-079437
T07
X+033492Y-083984
X+032508Y-083000
X+033492Y-082016
X+015242Y-083000
X+014258Y-082016
X+014258Y-083984
T08
X+012000Y-085750
X+037500Y-085750
X+037500Y-057250
X+012000Y-057250
T00
M30
