G04 DipTrace 5.2.0.4*
G04 TopAssembly.gbr*
%MOIN*%
G04 #@! TF.FileFunction,Drawing,Top*
G04 #@! TF.Part,Single*
%ADD13C,0.004724*%
%ADD37C,0.005*%
G04 #@! TA.AperFunction,Nonconductor*
%ADD67C,0.003088*%
%FSLAX26Y26*%
G04*
G70*
G90*
G75*
G01*
G04 TopAssy*
%LPD*%
X1056890Y-8200000D2*
D13*
G02X1056890Y-8200000I68110J0D01*
G01*
G36*
X1056238Y-8288448D2*
X1053668Y-8288279D1*
X1051143Y-8287777D1*
X1048704Y-8286949D1*
X1046395Y-8285810D1*
X1044254Y-8284380D1*
X1042318Y-8282682D1*
X1040620Y-8280746D1*
X1039190Y-8278605D1*
X1038051Y-8276296D1*
X1037223Y-8273857D1*
X1036721Y-8271332D1*
X1036552Y-8268762D1*
X1036721Y-8266193D1*
X1037223Y-8263668D1*
X1038051Y-8261229D1*
X1039190Y-8258920D1*
X1040620Y-8256779D1*
X1042318Y-8254843D1*
X1044254Y-8253145D1*
X1046395Y-8251715D1*
X1048704Y-8250576D1*
X1051143Y-8249748D1*
X1053668Y-8249246D1*
X1056238Y-8249077D1*
D1*
X1058807Y-8249246D1*
X1061332Y-8249748D1*
X1063771Y-8250576D1*
X1066080Y-8251715D1*
X1068221Y-8253145D1*
X1070157Y-8254843D1*
X1071855Y-8256779D1*
X1073285Y-8258920D1*
X1074424Y-8261229D1*
X1075252Y-8263668D1*
X1075754Y-8266193D1*
X1075923Y-8268762D1*
X1075754Y-8271332D1*
X1075252Y-8273857D1*
X1074424Y-8276296D1*
X1073285Y-8278605D1*
X1071855Y-8280746D1*
X1070157Y-8282682D1*
X1068221Y-8284380D1*
X1066080Y-8285810D1*
X1063771Y-8286949D1*
X1061332Y-8287777D1*
X1058807Y-8288279D1*
X1056238Y-8288448D1*
D1*
G37*
X1056890Y-8000000D2*
D13*
G02X1056890Y-8000000I68110J0D01*
G01*
G36*
X1056238Y-8088448D2*
X1053668Y-8088279D1*
X1051143Y-8087777D1*
X1048704Y-8086949D1*
X1046395Y-8085810D1*
X1044254Y-8084380D1*
X1042318Y-8082682D1*
X1040620Y-8080746D1*
X1039190Y-8078605D1*
X1038051Y-8076296D1*
X1037223Y-8073857D1*
X1036721Y-8071332D1*
X1036552Y-8068762D1*
X1036721Y-8066193D1*
X1037223Y-8063668D1*
X1038051Y-8061229D1*
X1039190Y-8058920D1*
X1040620Y-8056779D1*
X1042318Y-8054843D1*
X1044254Y-8053145D1*
X1046395Y-8051715D1*
X1048704Y-8050576D1*
X1051143Y-8049748D1*
X1053668Y-8049246D1*
X1056238Y-8049077D1*
D1*
X1058807Y-8049246D1*
X1061332Y-8049748D1*
X1063771Y-8050576D1*
X1066080Y-8051715D1*
X1068221Y-8053145D1*
X1070157Y-8054843D1*
X1071855Y-8056779D1*
X1073285Y-8058920D1*
X1074424Y-8061229D1*
X1075252Y-8063668D1*
X1075754Y-8066193D1*
X1075923Y-8068762D1*
X1075754Y-8071332D1*
X1075252Y-8073857D1*
X1074424Y-8076296D1*
X1073285Y-8078605D1*
X1071855Y-8080746D1*
X1070157Y-8082682D1*
X1068221Y-8084380D1*
X1066080Y-8085810D1*
X1063771Y-8086949D1*
X1061332Y-8087777D1*
X1058807Y-8088279D1*
X1056238Y-8088448D1*
D1*
G37*
X1271848Y-7172639D2*
D13*
X1342714Y-7172637D1*
X1378148Y-7208069D1*
X1378152Y-7377361D1*
X1271853Y-7377364D1*
X1271848Y-7172639D1*
X1324996Y-7100000D2*
X1324997Y-7172638D1*
X1325003Y-7377362D2*
X1325004Y-7450000D1*
X3071850Y-8047638D2*
X3142717D1*
X3178150Y-8083071D1*
Y-8252362D1*
X3071850D1*
Y-8047638D1*
X3125000Y-7975000D2*
Y-8047638D1*
Y-8252362D2*
Y-8325000D1*
X3471850Y-8047638D2*
X3542717D1*
X3578150Y-8083071D1*
Y-8252362D1*
X3471850D1*
Y-8047638D1*
X3525000Y-7975000D2*
Y-8047638D1*
Y-8252362D2*
Y-8325000D1*
X1235628Y-7727659D2*
X1514368Y-7727651D1*
X1506102Y-6340160D2*
X2343898D1*
X1506102Y-6090160D2*
X2343898D1*
X1506102Y-5840160D2*
X2343898D1*
X3715160Y-8088976D2*
Y-7311024D1*
X1040155Y-7739370D2*
Y-7460630D1*
X3715167Y-6688977D2*
X3715153Y-5911025D1*
X2606102Y-5840160D2*
X3443898D1*
X2606102Y-6090160D2*
X3443898D1*
X2606102Y-6340160D2*
X3443898D1*
X2743899Y-7934831D2*
X1906104Y-7934849D1*
X3464372Y-8709841D2*
X3185632Y-8709852D1*
X1739371Y-8709843D2*
X1460631Y-8709850D1*
X3089370Y-8709845D2*
X2810630D1*
X3450003Y-7349974D2*
X3449997Y-7049974D1*
X3249989Y-7049979D1*
X3249995Y-7349979D1*
X3450003Y-7349974D1*
X1924971Y-7500027D2*
X1924958Y-6900008D1*
X1374993Y-6900020D1*
X1375007Y-7500040D1*
X1924971Y-7500027D1*
X1074991Y-6800025D2*
G02X1074991Y-6800025I50000J0D01*
G01*
X1075009Y-7600025D2*
G02X1075009Y-7600025I50000J0D01*
G01*
X3374991Y-6799975D2*
G02X3374991Y-6799975I50000J0D01*
G01*
X3375009Y-7599975D2*
G02X3375009Y-7599975I50000J0D01*
G01*
X3324994Y-6949976D2*
G02X3324994Y-6949976I50000J0D01*
G01*
X3325006Y-7449976D2*
G02X3325006Y-7449976I50000J0D01*
G01*
X1875000Y-7035000D2*
Y-7115000D1*
X1885000Y-7125000D1*
X1875000Y-7135000D1*
Y-7215000D1*
X1885000Y-7225000D1*
X1965000D1*
X1975000Y-7215000D1*
Y-7135000D1*
X1965000Y-7125000D1*
X1975000Y-7115000D1*
Y-7035000D1*
X1965000Y-7025000D1*
X1885000D1*
X1875000Y-7035000D1*
X3075000D2*
Y-7115000D1*
X3085000Y-7125000D1*
X3075000Y-7135000D1*
Y-7215000D1*
X3085000Y-7225000D1*
X3165000D1*
X3175000Y-7215000D1*
Y-7135000D1*
X3165000Y-7125000D1*
X3175000Y-7115000D1*
Y-7035000D1*
X3165000Y-7025000D1*
X3085000D1*
X3075000Y-7035000D1*
X2975000D2*
Y-7115000D1*
X2985000Y-7125000D1*
X2975000Y-7135000D1*
Y-7215000D1*
X2985000Y-7225000D1*
X3065000D1*
X3075000Y-7215000D1*
Y-7135000D1*
X3065000Y-7125000D1*
X3075000Y-7115000D1*
Y-7035000D1*
X3065000Y-7025000D1*
X2985000D1*
X2975000Y-7035000D1*
X1574997Y-7035002D2*
X1575000Y-7115002D1*
X1585000Y-7125001D1*
X1575000Y-7135002D1*
X1575003Y-7215002D1*
X1585003Y-7225001D1*
X1665003Y-7224999D1*
X1675003Y-7214998D1*
X1675000Y-7134998D1*
X1665000Y-7124999D1*
X1675000Y-7114998D1*
X1674997Y-7034998D1*
X1664997Y-7024999D1*
X1584997Y-7025001D1*
X1574997Y-7035002D1*
X2274998Y-7035001D2*
X2275000Y-7115001D1*
X2285000Y-7125001D1*
X2275000Y-7135001D1*
X2275002Y-7215001D1*
X2285002Y-7225001D1*
X2365002Y-7224999D1*
X2375002Y-7214999D1*
X2375000Y-7134999D1*
X2365000Y-7124999D1*
X2375000Y-7114999D1*
X2374998Y-7034999D1*
X2364998Y-7024999D1*
X2284998Y-7025001D1*
X2274998Y-7035001D1*
X1474998D2*
X1475000Y-7115001D1*
X1485000Y-7125001D1*
X1475000Y-7135001D1*
X1475002Y-7215001D1*
X1485002Y-7225001D1*
X1565002Y-7224999D1*
X1575002Y-7214999D1*
X1575000Y-7134999D1*
X1565000Y-7124999D1*
X1575000Y-7114999D1*
X1574998Y-7034999D1*
X1564998Y-7024999D1*
X1484998Y-7025001D1*
X1474998Y-7035001D1*
X2075000Y-7035000D2*
Y-7115000D1*
X2085000Y-7125000D1*
X2075000Y-7135000D1*
Y-7215000D1*
X2085000Y-7225000D1*
X2165000D1*
X2175000Y-7215000D1*
Y-7135000D1*
X2165000Y-7125000D1*
X2175000Y-7115000D1*
Y-7035000D1*
X2165000Y-7025000D1*
X2085000D1*
X2075000Y-7035000D1*
X2575000D2*
Y-7115000D1*
X2585000Y-7125000D1*
X2575000Y-7135000D1*
Y-7215000D1*
X2585000Y-7225000D1*
X2665000D1*
X2675000Y-7215000D1*
Y-7135000D1*
X2665000Y-7125000D1*
X2675000Y-7115000D1*
Y-7035000D1*
X2665000Y-7025000D1*
X2585000D1*
X2575000Y-7035000D1*
X1375000D2*
Y-7115000D1*
X1385000Y-7125000D1*
X1375000Y-7135000D1*
Y-7215000D1*
X1385000Y-7225000D1*
X1465000D1*
X1475000Y-7215000D1*
Y-7135000D1*
X1465000Y-7125000D1*
X1475000Y-7115000D1*
Y-7035000D1*
X1465000Y-7025000D1*
X1385000D1*
X1375000Y-7035000D1*
X2715000Y-8475000D2*
X2635000D1*
X2625000Y-8485000D1*
X2615000Y-8475000D1*
X2535000D1*
X2525000Y-8485000D1*
Y-8565000D1*
X2535000Y-8575000D1*
X2615000D1*
X2625000Y-8565000D1*
X2635000Y-8575000D1*
X2715000D1*
X2725000Y-8565000D1*
Y-8485000D1*
X2715000Y-8475000D1*
X3453543Y-8300000D2*
Y-8444685D1*
X3414173Y-8484055D1*
X3343701D1*
Y-8485039D1*
X3288189D1*
Y-8114961D1*
X3343701D1*
Y-8115945D1*
X3453543D1*
Y-8300000D1*
X1275000Y-8290000D2*
Y-8210000D1*
X1265000Y-8200000D1*
X1275000Y-8190000D1*
Y-8110000D1*
X1265000Y-8100000D1*
X1185000D1*
X1175000Y-8110000D1*
Y-8190000D1*
X1185000Y-8200000D1*
X1175000Y-8210000D1*
Y-8290000D1*
X1185000Y-8300000D1*
X1265000D1*
X1275000Y-8290000D1*
X1175000Y-7910000D2*
Y-7990000D1*
X1185000Y-8000000D1*
X1175000Y-8010000D1*
Y-8090000D1*
X1185000Y-8100000D1*
X1265000D1*
X1275000Y-8090000D1*
Y-8010000D1*
X1265000Y-8000000D1*
X1275000Y-7990000D1*
Y-7910000D1*
X1265000Y-7900000D1*
X1185000D1*
X1175000Y-7910000D1*
X1321457Y-8300000D2*
Y-8155315D1*
X1360827Y-8115945D1*
X1431299D1*
Y-8114961D1*
X1486811D1*
Y-8485039D1*
X1431299D1*
Y-8484055D1*
X1321457D1*
Y-8300000D1*
X2085000Y-8575000D2*
X2165000D1*
X2175000Y-8565000D1*
X2185000Y-8575000D1*
X2265000D1*
X2275000Y-8565000D1*
Y-8485000D1*
X2265000Y-8475000D1*
X2185000D1*
X2175000Y-8485000D1*
X2165000Y-8475000D1*
X2085000D1*
X2075000Y-8485000D1*
Y-8565000D1*
X2085000Y-8575000D1*
X2682480Y-8762598D2*
D37*
Y-8577559D1*
X2267520D1*
Y-8762598D1*
X2682480D1*
G36*
X2578937Y-8550000D2*
X2578903Y-8550514D1*
X2578803Y-8551019D1*
X2578637Y-8551507D1*
X2578410Y-8551969D1*
X2578123Y-8552397D1*
X2577784Y-8552784D1*
X2577397Y-8553123D1*
X2576969Y-8553410D1*
X2576507Y-8553637D1*
X2576019Y-8553803D1*
X2575514Y-8553903D1*
X2575000Y-8553937D1*
X2574486Y-8553903D1*
X2573981Y-8553803D1*
X2573493Y-8553637D1*
X2573031Y-8553410D1*
X2572603Y-8553123D1*
X2572216Y-8552784D1*
X2571877Y-8552397D1*
X2571590Y-8551969D1*
X2571363Y-8551507D1*
X2571197Y-8551019D1*
X2571097Y-8550514D1*
X2571063Y-8550000D1*
D1*
X2571097Y-8549486D1*
X2571197Y-8548981D1*
X2571363Y-8548493D1*
X2571590Y-8548031D1*
X2571877Y-8547603D1*
X2572216Y-8547216D1*
X2572603Y-8546877D1*
X2573031Y-8546590D1*
X2573493Y-8546363D1*
X2573981Y-8546197D1*
X2574486Y-8546097D1*
X2575000Y-8546063D1*
X2575514Y-8546097D1*
X2576019Y-8546197D1*
X2576507Y-8546363D1*
X2576969Y-8546590D1*
X2577397Y-8546877D1*
X2577784Y-8547216D1*
X2578123Y-8547603D1*
X2578410Y-8548031D1*
X2578637Y-8548493D1*
X2578803Y-8548981D1*
X2578903Y-8549486D1*
X2578937Y-8550000D1*
D1*
G37*
X2232480Y-8762598D2*
D37*
Y-8577559D1*
X1817520D1*
Y-8762598D1*
X2232480D1*
G36*
X2258858Y-8650000D2*
X2258825Y-8650514D1*
X2258724Y-8651019D1*
X2258559Y-8651507D1*
X2258331Y-8651969D1*
X2258045Y-8652397D1*
X2257705Y-8652784D1*
X2257318Y-8653123D1*
X2256890Y-8653410D1*
X2256428Y-8653637D1*
X2255940Y-8653803D1*
X2255435Y-8653903D1*
X2254921Y-8653937D1*
X2254407Y-8653903D1*
X2253902Y-8653803D1*
X2253415Y-8653637D1*
X2252953Y-8653410D1*
X2252525Y-8653123D1*
X2252137Y-8652784D1*
X2251798Y-8652397D1*
X2251512Y-8651969D1*
X2251284Y-8651507D1*
X2251118Y-8651019D1*
X2251018Y-8650514D1*
X2250984Y-8650000D1*
D1*
X2251018Y-8649486D1*
X2251118Y-8648981D1*
X2251284Y-8648493D1*
X2251512Y-8648031D1*
X2251798Y-8647603D1*
X2252137Y-8647216D1*
X2252525Y-8646877D1*
X2252953Y-8646590D1*
X2253415Y-8646363D1*
X2253902Y-8646197D1*
X2254407Y-8646097D1*
X2254921Y-8646063D1*
X2255435Y-8646097D1*
X2255940Y-8646197D1*
X2256428Y-8646363D1*
X2256890Y-8646590D1*
X2257318Y-8646877D1*
X2257705Y-8647216D1*
X2258045Y-8647603D1*
X2258331Y-8648031D1*
X2258559Y-8648493D1*
X2258724Y-8648981D1*
X2258825Y-8649486D1*
X2258858Y-8650000D1*
D1*
G37*
X1662500Y-8075000D2*
D13*
G02X1662500Y-8075000I37500J0D01*
G01*
X1276530Y-7697072D2*
D67*
Y-7717168D1*
X1285152D1*
X1288026Y-7716195D1*
X1288977Y-7715244D1*
X1289927Y-7713343D1*
Y-7710469D1*
X1288977Y-7708546D1*
X1288026Y-7707595D1*
X1285152Y-7706644D1*
X1288026Y-7705672D1*
X1288977Y-7704721D1*
X1289927Y-7702820D1*
Y-7700896D1*
X1288976Y-7698995D1*
X1288026Y-7698022D1*
X1285152Y-7697072D1*
X1276530D1*
Y-7706645D2*
X1285152Y-7706644D1*
X1301851Y-7697071D2*
X1299927Y-7698022D1*
X1298026Y-7699945D1*
X1297053Y-7701847D1*
X1296103Y-7704721D1*
Y-7709518D1*
X1297054Y-7712370D1*
X1298027Y-7714293D1*
X1299928Y-7716195D1*
X1301851Y-7717167D1*
X1305676D1*
X1307577Y-7716194D1*
X1309500Y-7714293D1*
X1310451Y-7712370D1*
X1311402Y-7709518D1*
X1311401Y-7704720D1*
X1310451Y-7701846D1*
X1309500Y-7699945D1*
X1307577Y-7698022D1*
X1305675Y-7697071D1*
X1301851D1*
X1332898Y-7717166D2*
X1325226Y-7697071D1*
X1317578Y-7717167D1*
X1320451Y-7710468D2*
X1330024D1*
X1339074Y-7706643D2*
X1347674D1*
X1350548Y-7705670D1*
X1351520Y-7704719D1*
X1352471Y-7702818D1*
Y-7700894D1*
X1351520Y-7698993D1*
X1350547Y-7698020D1*
X1347673Y-7697070D1*
X1339073D1*
X1339074Y-7717166D1*
X1345772Y-7706643D2*
X1352471Y-7717166D1*
X1358646Y-7697070D2*
X1358647Y-7717166D1*
X1365346Y-7717165D1*
X1368220Y-7716193D1*
X1370143Y-7714291D1*
X1371094Y-7712368D1*
X1372044Y-7709516D1*
Y-7704718D1*
X1371093Y-7701844D1*
X1370143Y-7699943D1*
X1368219Y-7698020D1*
X1365345Y-7697069D1*
X1358646Y-7697070D1*
X1410084Y-7697068D2*
X1397660D1*
Y-7717164D1*
X1410085D1*
X1397660Y-7706641D2*
X1405309D1*
X1416260Y-7697068D2*
X1416261Y-7717164D1*
X1422959D1*
X1425833Y-7716191D1*
X1427757Y-7714289D1*
X1428707Y-7712366D1*
X1429658Y-7709514D1*
Y-7704717D1*
X1428707Y-7701843D1*
X1427756Y-7699942D1*
X1425833Y-7698018D1*
X1422959Y-7697068D1*
X1416260D1*
X1450181Y-7701842D2*
X1449231Y-7699941D1*
X1447307Y-7698018D1*
X1445406Y-7697067D1*
X1441581D1*
X1439658Y-7698018D1*
X1437757Y-7699941D1*
X1436784Y-7701843D1*
X1435833Y-7704717D1*
Y-7709514D1*
X1436784Y-7712366D1*
X1437757Y-7714289D1*
X1439658Y-7716190D1*
X1441582Y-7717163D1*
X1445406D1*
X1447308Y-7716190D1*
X1449231Y-7714289D1*
X1450182Y-7712365D1*
X1450181Y-7709514D1*
X1445406D1*
X1468781Y-7697066D2*
X1456357Y-7697067D1*
Y-7717163D1*
X1468782Y-7717162D1*
X1456357Y-7706639D2*
X1464006D1*
X1825590Y-6304648D2*
Y-6324744D1*
X1834212D1*
X1837086Y-6323771D1*
X1838037Y-6322820D1*
X1838987Y-6320919D1*
Y-6318045D1*
X1838037Y-6316122D1*
X1837086Y-6315171D1*
X1834212Y-6314220D1*
X1837086Y-6313248D1*
X1838037Y-6312297D1*
X1838987Y-6310396D1*
Y-6308472D1*
X1838037Y-6306571D1*
X1837086Y-6305598D1*
X1834212Y-6304648D1*
X1825590D1*
Y-6314220D2*
X1834212D1*
X1850911Y-6304648D2*
X1848988Y-6305598D1*
X1847086Y-6307522D1*
X1846114Y-6309423D1*
X1845163Y-6312297D1*
Y-6317095D1*
X1846114Y-6319946D1*
X1847086Y-6321870D1*
X1848988Y-6323771D1*
X1850911Y-6324744D1*
X1854736D1*
X1856637Y-6323771D1*
X1858560Y-6321870D1*
X1859511Y-6319946D1*
X1860461Y-6317095D1*
Y-6312297D1*
X1859511Y-6309423D1*
X1858560Y-6307522D1*
X1856637Y-6305598D1*
X1854736Y-6304648D1*
X1850911D1*
X1881958Y-6324744D2*
X1874286Y-6304648D1*
X1866637Y-6324744D1*
X1869511Y-6318045D2*
X1879084D1*
X1888134Y-6314220D2*
X1896734D1*
X1899608Y-6313248D1*
X1900580Y-6312297D1*
X1901531Y-6310396D1*
Y-6308472D1*
X1900580Y-6306571D1*
X1899608Y-6305598D1*
X1896734Y-6304648D1*
X1888134D1*
Y-6324744D1*
X1894832Y-6314220D2*
X1901531Y-6324744D1*
X1907707Y-6304648D2*
Y-6324744D1*
X1914405D1*
X1917279Y-6323771D1*
X1919203Y-6321870D1*
X1920153Y-6319946D1*
X1921104Y-6317095D1*
Y-6312297D1*
X1920153Y-6309423D1*
X1919203Y-6307522D1*
X1917279Y-6305598D1*
X1914405Y-6304648D1*
X1907707D1*
X1959145D2*
X1946720D1*
Y-6324744D1*
X1959145D1*
X1946720Y-6314220D2*
X1954369D1*
X1965320Y-6304648D2*
Y-6324744D1*
X1972019D1*
X1974893Y-6323771D1*
X1976816Y-6321870D1*
X1977767Y-6319946D1*
X1978718Y-6317095D1*
Y-6312297D1*
X1977767Y-6309423D1*
X1976816Y-6307522D1*
X1974893Y-6305598D1*
X1972019Y-6304648D1*
X1965320D1*
X1999241Y-6309423D2*
X1998291Y-6307522D1*
X1996367Y-6305598D1*
X1994466Y-6304648D1*
X1990641D1*
X1988718Y-6305598D1*
X1986817Y-6307522D1*
X1985844Y-6309423D1*
X1984893Y-6312297D1*
Y-6317095D1*
X1985844Y-6319946D1*
X1986817Y-6321870D1*
X1988718Y-6323771D1*
X1990641Y-6324744D1*
X1994466D1*
X1996367Y-6323771D1*
X1998291Y-6321870D1*
X1999241Y-6319946D1*
Y-6317095D1*
X1994466D1*
X2017842Y-6304648D2*
X2005417D1*
Y-6324744D1*
X2017842D1*
X2005417Y-6314220D2*
X2013066D1*
X1825590Y-6054648D2*
Y-6074744D1*
X1834212D1*
X1837086Y-6073771D1*
X1838037Y-6072820D1*
X1838987Y-6070919D1*
Y-6068045D1*
X1838037Y-6066122D1*
X1837086Y-6065171D1*
X1834212Y-6064220D1*
X1837086Y-6063248D1*
X1838037Y-6062297D1*
X1838987Y-6060396D1*
Y-6058472D1*
X1838037Y-6056571D1*
X1837086Y-6055598D1*
X1834212Y-6054648D1*
X1825590D1*
Y-6064220D2*
X1834212D1*
X1850911Y-6054648D2*
X1848988Y-6055598D1*
X1847086Y-6057522D1*
X1846114Y-6059423D1*
X1845163Y-6062297D1*
Y-6067095D1*
X1846114Y-6069946D1*
X1847086Y-6071870D1*
X1848988Y-6073771D1*
X1850911Y-6074744D1*
X1854736D1*
X1856637Y-6073771D1*
X1858560Y-6071870D1*
X1859511Y-6069946D1*
X1860461Y-6067095D1*
Y-6062297D1*
X1859511Y-6059423D1*
X1858560Y-6057522D1*
X1856637Y-6055598D1*
X1854736Y-6054648D1*
X1850911D1*
X1881958Y-6074744D2*
X1874286Y-6054648D1*
X1866637Y-6074744D1*
X1869511Y-6068045D2*
X1879084D1*
X1888134Y-6064220D2*
X1896734D1*
X1899608Y-6063248D1*
X1900580Y-6062297D1*
X1901531Y-6060396D1*
Y-6058472D1*
X1900580Y-6056571D1*
X1899608Y-6055598D1*
X1896734Y-6054648D1*
X1888134D1*
Y-6074744D1*
X1894832Y-6064220D2*
X1901531Y-6074744D1*
X1907707Y-6054648D2*
Y-6074744D1*
X1914405D1*
X1917279Y-6073771D1*
X1919203Y-6071870D1*
X1920153Y-6069946D1*
X1921104Y-6067095D1*
Y-6062297D1*
X1920153Y-6059423D1*
X1919203Y-6057522D1*
X1917279Y-6055598D1*
X1914405Y-6054648D1*
X1907707D1*
X1959145D2*
X1946720D1*
Y-6074744D1*
X1959145D1*
X1946720Y-6064220D2*
X1954369D1*
X1965320Y-6054648D2*
Y-6074744D1*
X1972019D1*
X1974893Y-6073771D1*
X1976816Y-6071870D1*
X1977767Y-6069946D1*
X1978718Y-6067095D1*
Y-6062297D1*
X1977767Y-6059423D1*
X1976816Y-6057522D1*
X1974893Y-6055598D1*
X1972019Y-6054648D1*
X1965320D1*
X1999241Y-6059423D2*
X1998291Y-6057522D1*
X1996367Y-6055598D1*
X1994466Y-6054648D1*
X1990641D1*
X1988718Y-6055598D1*
X1986817Y-6057522D1*
X1985844Y-6059423D1*
X1984893Y-6062297D1*
Y-6067095D1*
X1985844Y-6069946D1*
X1986817Y-6071870D1*
X1988718Y-6073771D1*
X1990641Y-6074744D1*
X1994466D1*
X1996367Y-6073771D1*
X1998291Y-6071870D1*
X1999241Y-6069946D1*
Y-6067095D1*
X1994466D1*
X2017842Y-6054648D2*
X2005417D1*
Y-6074744D1*
X2017842D1*
X2005417Y-6064220D2*
X2013066D1*
X1825590Y-5804648D2*
Y-5824744D1*
X1834212D1*
X1837086Y-5823771D1*
X1838037Y-5822820D1*
X1838987Y-5820919D1*
Y-5818045D1*
X1838037Y-5816122D1*
X1837086Y-5815171D1*
X1834212Y-5814220D1*
X1837086Y-5813248D1*
X1838037Y-5812297D1*
X1838987Y-5810396D1*
Y-5808472D1*
X1838037Y-5806571D1*
X1837086Y-5805598D1*
X1834212Y-5804648D1*
X1825590D1*
Y-5814220D2*
X1834212D1*
X1850911Y-5804648D2*
X1848988Y-5805598D1*
X1847086Y-5807522D1*
X1846114Y-5809423D1*
X1845163Y-5812297D1*
Y-5817095D1*
X1846114Y-5819946D1*
X1847086Y-5821870D1*
X1848988Y-5823771D1*
X1850911Y-5824744D1*
X1854736D1*
X1856637Y-5823771D1*
X1858560Y-5821870D1*
X1859511Y-5819946D1*
X1860461Y-5817095D1*
Y-5812297D1*
X1859511Y-5809423D1*
X1858560Y-5807522D1*
X1856637Y-5805598D1*
X1854736Y-5804648D1*
X1850911D1*
X1881958Y-5824744D2*
X1874286Y-5804648D1*
X1866637Y-5824744D1*
X1869511Y-5818045D2*
X1879084D1*
X1888134Y-5814220D2*
X1896734D1*
X1899608Y-5813248D1*
X1900580Y-5812297D1*
X1901531Y-5810396D1*
Y-5808472D1*
X1900580Y-5806571D1*
X1899608Y-5805598D1*
X1896734Y-5804648D1*
X1888134D1*
Y-5824744D1*
X1894832Y-5814220D2*
X1901531Y-5824744D1*
X1907707Y-5804648D2*
Y-5824744D1*
X1914405D1*
X1917279Y-5823771D1*
X1919203Y-5821870D1*
X1920153Y-5819946D1*
X1921104Y-5817095D1*
Y-5812297D1*
X1920153Y-5809423D1*
X1919203Y-5807522D1*
X1917279Y-5805598D1*
X1914405Y-5804648D1*
X1907707D1*
X1959145D2*
X1946720D1*
Y-5824744D1*
X1959145D1*
X1946720Y-5814220D2*
X1954369D1*
X1965320Y-5804648D2*
Y-5824744D1*
X1972019D1*
X1974893Y-5823771D1*
X1976816Y-5821870D1*
X1977767Y-5819946D1*
X1978718Y-5817095D1*
Y-5812297D1*
X1977767Y-5809423D1*
X1976816Y-5807522D1*
X1974893Y-5805598D1*
X1972019Y-5804648D1*
X1965320D1*
X1999241Y-5809423D2*
X1998291Y-5807522D1*
X1996367Y-5805598D1*
X1994466Y-5804648D1*
X1990641D1*
X1988718Y-5805598D1*
X1986817Y-5807522D1*
X1985844Y-5809423D1*
X1984893Y-5812297D1*
Y-5817095D1*
X1985844Y-5819946D1*
X1986817Y-5821870D1*
X1988718Y-5823771D1*
X1990641Y-5824744D1*
X1994466D1*
X1996367Y-5823771D1*
X1998291Y-5821870D1*
X1999241Y-5819946D1*
Y-5817095D1*
X1994466D1*
X2017842Y-5804648D2*
X2005417D1*
Y-5824744D1*
X2017842D1*
X2005417Y-5814220D2*
X2013066D1*
X3679648Y-7799434D2*
X3699744D1*
Y-7790812D1*
X3698771Y-7787938D1*
X3697820Y-7786987D1*
X3695919Y-7786036D1*
X3693045D1*
X3691122Y-7786987D1*
X3690171Y-7787938D1*
X3689220Y-7790812D1*
X3688248Y-7787938D1*
X3687297Y-7786987D1*
X3685396Y-7786036D1*
X3683472D1*
X3681571Y-7786987D1*
X3680598Y-7787938D1*
X3679648Y-7790812D1*
Y-7799434D1*
X3689220D2*
Y-7790812D1*
X3679648Y-7774113D2*
X3680598Y-7776036D1*
X3682522Y-7777937D1*
X3684423Y-7778910D1*
X3687297Y-7779861D1*
X3692095D1*
X3694946Y-7778910D1*
X3696870Y-7777937D1*
X3698771Y-7776036D1*
X3699744Y-7774113D1*
Y-7770288D1*
X3698771Y-7768387D1*
X3696870Y-7766463D1*
X3694946Y-7765513D1*
X3692095Y-7764562D1*
X3687297D1*
X3684423Y-7765513D1*
X3682522Y-7766463D1*
X3680598Y-7768387D1*
X3679648Y-7770288D1*
Y-7774113D1*
X3699744Y-7743066D2*
X3679648Y-7750737D1*
X3699744Y-7758386D1*
X3693045Y-7755512D2*
Y-7745940D1*
X3689220Y-7736890D2*
Y-7728290D1*
X3688248Y-7725416D1*
X3687297Y-7724443D1*
X3685396Y-7723493D1*
X3683472D1*
X3681571Y-7724443D1*
X3680598Y-7725416D1*
X3679648Y-7728290D1*
Y-7736890D1*
X3699744D1*
X3689220Y-7730191D2*
X3699744Y-7723493D1*
X3679648Y-7717317D2*
X3699744D1*
Y-7710618D1*
X3698771Y-7707744D1*
X3696870Y-7705821D1*
X3694946Y-7704870D1*
X3692095Y-7703920D1*
X3687297D1*
X3684423Y-7704870D1*
X3682522Y-7705821D1*
X3680598Y-7707744D1*
X3679648Y-7710618D1*
Y-7717317D1*
Y-7665879D2*
Y-7678304D1*
X3699744D1*
Y-7665879D1*
X3689220Y-7678304D2*
Y-7670654D1*
X3679648Y-7659703D2*
X3699744D1*
Y-7653005D1*
X3698771Y-7650131D1*
X3696870Y-7648207D1*
X3694946Y-7647257D1*
X3692095Y-7646306D1*
X3687297D1*
X3684423Y-7647257D1*
X3682522Y-7648207D1*
X3680598Y-7650131D1*
X3679648Y-7653005D1*
Y-7659703D1*
X3684423Y-7625782D2*
X3682522Y-7626733D1*
X3680598Y-7628656D1*
X3679648Y-7630558D1*
Y-7634382D1*
X3680598Y-7636306D1*
X3682522Y-7638207D1*
X3684423Y-7639180D1*
X3687297Y-7640130D1*
X3692095D1*
X3694946Y-7639180D1*
X3696870Y-7638207D1*
X3698771Y-7636306D1*
X3699744Y-7634382D1*
Y-7630558D1*
X3698771Y-7628656D1*
X3696870Y-7626733D1*
X3694946Y-7625782D1*
X3692095D1*
Y-7630558D1*
X3679648Y-7607182D2*
Y-7619607D1*
X3699744D1*
Y-7607182D1*
X3689220Y-7619607D2*
Y-7611957D1*
X1009569Y-7698468D2*
X1029665D1*
Y-7689846D1*
X1028692Y-7686972D1*
X1027742Y-7686021D1*
X1025840Y-7685071D1*
X1022966D1*
X1021043Y-7686021D1*
X1020092Y-7686972D1*
X1019142Y-7689846D1*
X1018169Y-7686972D1*
X1017218Y-7686021D1*
X1015317Y-7685071D1*
X1013394D1*
X1011492Y-7686021D1*
X1010520Y-7686972D1*
X1009569Y-7689846D1*
Y-7698468D1*
X1019142D2*
Y-7689846D1*
X1009569Y-7673147D2*
X1010520Y-7675070D1*
X1012443Y-7676971D1*
X1014344Y-7677944D1*
X1017218Y-7678895D1*
X1022016D1*
X1024868Y-7677944D1*
X1026791Y-7676971D1*
X1028692Y-7675070D1*
X1029665Y-7673147D1*
Y-7669322D1*
X1028692Y-7667421D1*
X1026791Y-7665498D1*
X1024868Y-7664547D1*
X1022016Y-7663596D1*
X1017218D1*
X1014344Y-7664547D1*
X1012443Y-7665498D1*
X1010520Y-7667421D1*
X1009569Y-7669322D1*
Y-7673147D1*
X1029665Y-7642100D2*
X1009569Y-7649771D1*
X1029665Y-7657421D1*
X1022966Y-7654547D2*
Y-7644974D1*
X1019142Y-7635924D2*
Y-7627324D1*
X1018169Y-7624450D1*
X1017218Y-7623477D1*
X1015317Y-7622527D1*
X1013394D1*
X1011492Y-7623477D1*
X1010520Y-7624450D1*
X1009569Y-7627324D1*
Y-7635924D1*
X1029665D1*
X1019142Y-7629225D2*
X1029665Y-7622527D1*
X1009569Y-7616351D2*
X1029665D1*
Y-7609652D1*
X1028692Y-7606778D1*
X1026791Y-7604855D1*
X1024868Y-7603904D1*
X1022016Y-7602954D1*
X1017218D1*
X1014344Y-7603904D1*
X1012443Y-7604855D1*
X1010520Y-7606778D1*
X1009569Y-7609652D1*
Y-7616351D1*
Y-7564913D2*
Y-7577338D1*
X1029665D1*
Y-7564913D1*
X1019142Y-7577338D2*
Y-7569688D1*
X1009569Y-7558737D2*
X1029665D1*
Y-7552039D1*
X1028692Y-7549165D1*
X1026791Y-7547241D1*
X1024868Y-7546291D1*
X1022016Y-7545340D1*
X1017218D1*
X1014344Y-7546291D1*
X1012443Y-7547241D1*
X1010520Y-7549165D1*
X1009569Y-7552039D1*
Y-7558737D1*
X1014344Y-7524816D2*
X1012443Y-7525767D1*
X1010520Y-7527690D1*
X1009569Y-7529592D1*
Y-7533416D1*
X1010520Y-7535340D1*
X1012443Y-7537241D1*
X1014344Y-7538214D1*
X1017218Y-7539164D1*
X1022016D1*
X1024868Y-7538214D1*
X1026791Y-7537241D1*
X1028692Y-7535340D1*
X1029665Y-7533416D1*
Y-7529592D1*
X1028692Y-7527690D1*
X1026791Y-7525767D1*
X1024868Y-7524816D1*
X1022016D1*
Y-7529592D1*
X1009569Y-7506216D2*
Y-7518641D1*
X1029665D1*
Y-7506216D1*
X1019142Y-7518641D2*
Y-7510991D1*
X3679650Y-6399435D2*
X3699746D1*
X3699745Y-6390813D1*
X3698773Y-6387939D1*
X3697822Y-6386988D1*
X3695921Y-6386038D1*
X3693047D1*
X3691123Y-6386989D1*
X3690173Y-6387939D1*
X3689222Y-6390813D1*
X3688249Y-6387939D1*
X3687299Y-6386989D1*
X3685397Y-6386038D1*
X3683474D1*
X3681573Y-6386989D1*
X3680600Y-6387939D1*
X3679649Y-6390813D1*
X3679650Y-6399435D1*
X3689222D2*
Y-6390813D1*
X3679649Y-6374114D2*
X3680600Y-6376038D1*
X3682523Y-6377939D1*
X3684425Y-6378912D1*
X3687299Y-6379862D1*
X3692096D1*
X3694948Y-6378911D1*
X3696871Y-6377939D1*
X3698772Y-6376037D1*
X3699745Y-6374114D1*
Y-6370289D1*
X3698772Y-6368388D1*
X3696871Y-6366465D1*
X3694948Y-6365514D1*
X3692096Y-6364564D1*
X3687298D1*
X3684424Y-6365514D1*
X3682523Y-6366465D1*
X3680600Y-6368388D1*
X3679649Y-6370290D1*
Y-6374114D1*
X3699745Y-6343067D2*
X3679649Y-6350739D1*
X3699745Y-6358388D1*
X3693046Y-6355514D2*
Y-6345941D1*
X3689221Y-6336891D2*
Y-6328292D1*
X3688248Y-6325418D1*
X3687298Y-6324445D1*
X3685396Y-6323494D1*
X3683473D1*
X3681572Y-6324445D1*
X3680599Y-6325418D1*
X3679648Y-6328292D1*
Y-6336892D1*
X3699744Y-6336891D1*
X3689221Y-6330193D2*
X3699744Y-6323494D1*
X3679648Y-6317319D2*
X3699744Y-6317318D1*
Y-6310620D1*
X3698771Y-6307746D1*
X3696870Y-6305822D1*
X3694946Y-6304872D1*
X3692095Y-6303921D1*
X3687297D1*
X3684423Y-6304872D1*
X3682522Y-6305823D1*
X3680599Y-6307746D1*
X3679648Y-6310620D1*
Y-6317319D1*
X3679647Y-6265881D2*
Y-6278305D1*
X3699743D1*
Y-6265880D1*
X3689220Y-6278305D2*
Y-6270656D1*
X3679647Y-6259705D2*
X3699743D1*
Y-6253006D1*
X3698770Y-6250132D1*
X3696869Y-6248209D1*
X3694945Y-6247258D1*
X3692094Y-6246307D1*
X3687296D1*
X3684422Y-6247258D1*
X3682521Y-6248209D1*
X3680598Y-6250132D1*
X3679647Y-6253006D1*
Y-6259705D1*
X3684422Y-6225784D2*
X3682520Y-6226735D1*
X3680597Y-6228658D1*
X3679647Y-6230559D1*
Y-6234384D1*
X3680597Y-6236307D1*
X3682521Y-6238208D1*
X3684422Y-6239181D1*
X3687296Y-6240132D1*
X3692093D1*
X3694945Y-6239181D1*
X3696869Y-6238208D1*
X3698770Y-6236307D1*
X3699743Y-6234383D1*
Y-6230559D1*
X3698770Y-6228658D1*
X3696868Y-6226734D1*
X3694945Y-6225784D1*
X3692093D1*
Y-6230559D1*
X3679646Y-6207184D2*
Y-6219608D1*
X3699742D1*
Y-6207183D1*
X3689219Y-6219608D2*
Y-6211959D1*
X2925590Y-5804648D2*
Y-5824744D1*
X2934212D1*
X2937086Y-5823771D1*
X2938037Y-5822820D1*
X2938987Y-5820919D1*
Y-5818045D1*
X2938037Y-5816122D1*
X2937086Y-5815171D1*
X2934212Y-5814220D1*
X2937086Y-5813248D1*
X2938037Y-5812297D1*
X2938987Y-5810396D1*
Y-5808472D1*
X2938037Y-5806571D1*
X2937086Y-5805598D1*
X2934212Y-5804648D1*
X2925590D1*
Y-5814220D2*
X2934212D1*
X2950911Y-5804648D2*
X2948988Y-5805598D1*
X2947086Y-5807522D1*
X2946114Y-5809423D1*
X2945163Y-5812297D1*
Y-5817095D1*
X2946114Y-5819946D1*
X2947086Y-5821870D1*
X2948988Y-5823771D1*
X2950911Y-5824744D1*
X2954736D1*
X2956637Y-5823771D1*
X2958560Y-5821870D1*
X2959511Y-5819946D1*
X2960461Y-5817095D1*
Y-5812297D1*
X2959511Y-5809423D1*
X2958560Y-5807522D1*
X2956637Y-5805598D1*
X2954736Y-5804648D1*
X2950911D1*
X2981958Y-5824744D2*
X2974286Y-5804648D1*
X2966637Y-5824744D1*
X2969511Y-5818045D2*
X2979084D1*
X2988134Y-5814220D2*
X2996734D1*
X2999608Y-5813248D1*
X3000580Y-5812297D1*
X3001531Y-5810396D1*
Y-5808472D1*
X3000580Y-5806571D1*
X2999608Y-5805598D1*
X2996734Y-5804648D1*
X2988134D1*
Y-5824744D1*
X2994832Y-5814220D2*
X3001531Y-5824744D1*
X3007707Y-5804648D2*
Y-5824744D1*
X3014405D1*
X3017279Y-5823771D1*
X3019203Y-5821870D1*
X3020153Y-5819946D1*
X3021104Y-5817095D1*
Y-5812297D1*
X3020153Y-5809423D1*
X3019203Y-5807522D1*
X3017279Y-5805598D1*
X3014405Y-5804648D1*
X3007707D1*
X3059145D2*
X3046720D1*
Y-5824744D1*
X3059145D1*
X3046720Y-5814220D2*
X3054369D1*
X3065320Y-5804648D2*
Y-5824744D1*
X3072019D1*
X3074893Y-5823771D1*
X3076816Y-5821870D1*
X3077767Y-5819946D1*
X3078718Y-5817095D1*
Y-5812297D1*
X3077767Y-5809423D1*
X3076816Y-5807522D1*
X3074893Y-5805598D1*
X3072019Y-5804648D1*
X3065320D1*
X3099241Y-5809423D2*
X3098291Y-5807522D1*
X3096367Y-5805598D1*
X3094466Y-5804648D1*
X3090641D1*
X3088718Y-5805598D1*
X3086817Y-5807522D1*
X3085844Y-5809423D1*
X3084893Y-5812297D1*
Y-5817095D1*
X3085844Y-5819946D1*
X3086817Y-5821870D1*
X3088718Y-5823771D1*
X3090641Y-5824744D1*
X3094466D1*
X3096367Y-5823771D1*
X3098291Y-5821870D1*
X3099241Y-5819946D1*
Y-5817095D1*
X3094466D1*
X3117842Y-5804648D2*
X3105417D1*
Y-5824744D1*
X3117842D1*
X3105417Y-5814220D2*
X3113066D1*
X2925590Y-6054648D2*
Y-6074744D1*
X2934212D1*
X2937086Y-6073771D1*
X2938037Y-6072820D1*
X2938987Y-6070919D1*
Y-6068045D1*
X2938037Y-6066122D1*
X2937086Y-6065171D1*
X2934212Y-6064220D1*
X2937086Y-6063248D1*
X2938037Y-6062297D1*
X2938987Y-6060396D1*
Y-6058472D1*
X2938037Y-6056571D1*
X2937086Y-6055598D1*
X2934212Y-6054648D1*
X2925590D1*
Y-6064220D2*
X2934212D1*
X2950911Y-6054648D2*
X2948988Y-6055598D1*
X2947086Y-6057522D1*
X2946114Y-6059423D1*
X2945163Y-6062297D1*
Y-6067095D1*
X2946114Y-6069946D1*
X2947086Y-6071870D1*
X2948988Y-6073771D1*
X2950911Y-6074744D1*
X2954736D1*
X2956637Y-6073771D1*
X2958560Y-6071870D1*
X2959511Y-6069946D1*
X2960461Y-6067095D1*
Y-6062297D1*
X2959511Y-6059423D1*
X2958560Y-6057522D1*
X2956637Y-6055598D1*
X2954736Y-6054648D1*
X2950911D1*
X2981958Y-6074744D2*
X2974286Y-6054648D1*
X2966637Y-6074744D1*
X2969511Y-6068045D2*
X2979084D1*
X2988134Y-6064220D2*
X2996734D1*
X2999608Y-6063248D1*
X3000580Y-6062297D1*
X3001531Y-6060396D1*
Y-6058472D1*
X3000580Y-6056571D1*
X2999608Y-6055598D1*
X2996734Y-6054648D1*
X2988134D1*
Y-6074744D1*
X2994832Y-6064220D2*
X3001531Y-6074744D1*
X3007707Y-6054648D2*
Y-6074744D1*
X3014405D1*
X3017279Y-6073771D1*
X3019203Y-6071870D1*
X3020153Y-6069946D1*
X3021104Y-6067095D1*
Y-6062297D1*
X3020153Y-6059423D1*
X3019203Y-6057522D1*
X3017279Y-6055598D1*
X3014405Y-6054648D1*
X3007707D1*
X3059145D2*
X3046720D1*
Y-6074744D1*
X3059145D1*
X3046720Y-6064220D2*
X3054369D1*
X3065320Y-6054648D2*
Y-6074744D1*
X3072019D1*
X3074893Y-6073771D1*
X3076816Y-6071870D1*
X3077767Y-6069946D1*
X3078718Y-6067095D1*
Y-6062297D1*
X3077767Y-6059423D1*
X3076816Y-6057522D1*
X3074893Y-6055598D1*
X3072019Y-6054648D1*
X3065320D1*
X3099241Y-6059423D2*
X3098291Y-6057522D1*
X3096367Y-6055598D1*
X3094466Y-6054648D1*
X3090641D1*
X3088718Y-6055598D1*
X3086817Y-6057522D1*
X3085844Y-6059423D1*
X3084893Y-6062297D1*
Y-6067095D1*
X3085844Y-6069946D1*
X3086817Y-6071870D1*
X3088718Y-6073771D1*
X3090641Y-6074744D1*
X3094466D1*
X3096367Y-6073771D1*
X3098291Y-6071870D1*
X3099241Y-6069946D1*
Y-6067095D1*
X3094466D1*
X3117842Y-6054648D2*
X3105417D1*
Y-6074744D1*
X3117842D1*
X3105417Y-6064220D2*
X3113066D1*
X2925590Y-6304648D2*
Y-6324744D1*
X2934212D1*
X2937086Y-6323771D1*
X2938037Y-6322820D1*
X2938987Y-6320919D1*
Y-6318045D1*
X2938037Y-6316122D1*
X2937086Y-6315171D1*
X2934212Y-6314220D1*
X2937086Y-6313248D1*
X2938037Y-6312297D1*
X2938987Y-6310396D1*
Y-6308472D1*
X2938037Y-6306571D1*
X2937086Y-6305598D1*
X2934212Y-6304648D1*
X2925590D1*
Y-6314220D2*
X2934212D1*
X2950911Y-6304648D2*
X2948988Y-6305598D1*
X2947086Y-6307522D1*
X2946114Y-6309423D1*
X2945163Y-6312297D1*
Y-6317095D1*
X2946114Y-6319946D1*
X2947086Y-6321870D1*
X2948988Y-6323771D1*
X2950911Y-6324744D1*
X2954736D1*
X2956637Y-6323771D1*
X2958560Y-6321870D1*
X2959511Y-6319946D1*
X2960461Y-6317095D1*
Y-6312297D1*
X2959511Y-6309423D1*
X2958560Y-6307522D1*
X2956637Y-6305598D1*
X2954736Y-6304648D1*
X2950911D1*
X2981958Y-6324744D2*
X2974286Y-6304648D1*
X2966637Y-6324744D1*
X2969511Y-6318045D2*
X2979084D1*
X2988134Y-6314220D2*
X2996734D1*
X2999608Y-6313248D1*
X3000580Y-6312297D1*
X3001531Y-6310396D1*
Y-6308472D1*
X3000580Y-6306571D1*
X2999608Y-6305598D1*
X2996734Y-6304648D1*
X2988134D1*
Y-6324744D1*
X2994832Y-6314220D2*
X3001531Y-6324744D1*
X3007707Y-6304648D2*
Y-6324744D1*
X3014405D1*
X3017279Y-6323771D1*
X3019203Y-6321870D1*
X3020153Y-6319946D1*
X3021104Y-6317095D1*
Y-6312297D1*
X3020153Y-6309423D1*
X3019203Y-6307522D1*
X3017279Y-6305598D1*
X3014405Y-6304648D1*
X3007707D1*
X3059145D2*
X3046720D1*
Y-6324744D1*
X3059145D1*
X3046720Y-6314220D2*
X3054369D1*
X3065320Y-6304648D2*
Y-6324744D1*
X3072019D1*
X3074893Y-6323771D1*
X3076816Y-6321870D1*
X3077767Y-6319946D1*
X3078718Y-6317095D1*
Y-6312297D1*
X3077767Y-6309423D1*
X3076816Y-6307522D1*
X3074893Y-6305598D1*
X3072019Y-6304648D1*
X3065320D1*
X3099241Y-6309423D2*
X3098291Y-6307522D1*
X3096367Y-6305598D1*
X3094466Y-6304648D1*
X3090641D1*
X3088718Y-6305598D1*
X3086817Y-6307522D1*
X3085844Y-6309423D1*
X3084893Y-6312297D1*
Y-6317095D1*
X3085844Y-6319946D1*
X3086817Y-6321870D1*
X3088718Y-6323771D1*
X3090641Y-6324744D1*
X3094466D1*
X3096367Y-6323771D1*
X3098291Y-6321870D1*
X3099241Y-6319946D1*
Y-6317095D1*
X3094466D1*
X3117842Y-6304648D2*
X3105417D1*
Y-6324744D1*
X3117842D1*
X3105417Y-6314220D2*
X3113066D1*
X2424412Y-7970350D2*
Y-7950254D1*
X2415790D1*
X2412916Y-7951227D1*
X2411965Y-7952178D1*
X2411014Y-7954079D1*
X2411015Y-7956953D1*
X2411965Y-7958876D1*
X2412916Y-7959827D1*
X2415790Y-7960778D1*
X2412916Y-7961750D1*
X2411965Y-7962701D1*
X2411015Y-7964602D1*
Y-7966526D1*
X2411965Y-7968427D1*
X2412916Y-7969400D1*
X2415790Y-7970350D1*
X2424412D1*
Y-7960777D2*
X2415790Y-7960778D1*
X2399091Y-7970351D2*
X2401014Y-7969400D1*
X2402916Y-7967476D1*
X2403888Y-7965575D1*
X2404839Y-7962701D1*
Y-7957904D1*
X2403888Y-7955052D1*
X2402915Y-7953128D1*
X2401014Y-7951227D1*
X2399091Y-7950255D1*
X2395266D1*
X2393365Y-7951227D1*
X2391441Y-7953129D1*
X2390491Y-7955052D1*
X2389540Y-7957904D1*
Y-7962701D1*
X2390491Y-7965575D1*
X2391442Y-7967477D1*
X2393365Y-7969400D1*
X2395266Y-7970351D1*
X2399091D1*
X2368044Y-7950255D2*
X2375715Y-7970351D1*
X2383364Y-7950255D1*
X2380490Y-7956954D2*
X2370918D1*
X2361868Y-7960779D2*
X2353268D1*
X2350394Y-7961752D1*
X2349422Y-7962702D1*
X2348471Y-7964604D1*
Y-7966527D1*
X2349422Y-7968428D1*
X2350394Y-7969401D1*
X2353268Y-7970352D1*
X2361868Y-7970351D1*
Y-7950255D1*
X2355170Y-7960779D2*
X2348471Y-7950256D1*
X2342295Y-7970352D2*
Y-7950256D1*
X2335596D1*
X2332722Y-7951229D1*
X2330799Y-7953130D1*
X2329848Y-7955053D1*
X2328898Y-7957905D1*
Y-7962703D1*
X2329849Y-7965577D1*
X2330799Y-7967478D1*
X2332723Y-7969401D1*
X2335597Y-7970352D1*
X2342295D1*
X2290857Y-7970353D2*
X2303282D1*
X2303281Y-7950257D1*
X2290857D1*
X2303282Y-7960780D2*
X2295632D1*
X2284682Y-7970353D2*
X2284681Y-7950257D1*
X2277983D1*
X2275109Y-7951230D1*
X2273185Y-7953131D1*
X2272235Y-7955055D1*
X2271284Y-7957907D1*
Y-7962704D1*
X2272235Y-7965578D1*
X2273186Y-7967479D1*
X2275109Y-7969403D1*
X2277983Y-7970353D1*
X2284682D1*
X2250761Y-7965579D2*
X2251711Y-7967480D1*
X2253635Y-7969403D1*
X2255536Y-7970354D1*
X2259361D1*
X2261284Y-7969403D1*
X2263185Y-7967480D1*
X2264158Y-7965578D1*
X2265108Y-7962704D1*
Y-7957907D1*
X2264158Y-7955055D1*
X2263185Y-7953132D1*
X2261284Y-7951230D1*
X2259360Y-7950258D1*
X2255535D1*
X2253634Y-7951231D1*
X2251711Y-7953132D1*
X2250760Y-7955055D1*
Y-7957907D1*
X2255536D1*
X2232160Y-7970354D2*
X2244585D1*
X2244584Y-7950258D1*
X2232160D1*
X2244585Y-7960781D2*
X2236935D1*
X3423471Y-8740429D2*
X3423470Y-8720333D1*
X3414848D1*
X3411974Y-8721306D1*
X3411024Y-8722256D1*
X3410073Y-8724158D1*
Y-8727032D1*
X3411024Y-8728955D1*
X3411975Y-8729906D1*
X3414849Y-8730856D1*
X3411975Y-8731829D1*
X3411024Y-8732780D1*
X3410073Y-8734681D1*
X3410074Y-8736604D1*
X3411024Y-8738506D1*
X3411975Y-8739478D1*
X3414849Y-8740429D1*
X3423471D1*
Y-8730856D2*
X3414849D1*
X3398150Y-8740430D2*
X3400073Y-8739479D1*
X3401975Y-8737555D1*
X3402947Y-8735654D1*
X3403898Y-8732780D1*
Y-8727983D1*
X3402947Y-8725131D1*
X3401974Y-8723207D1*
X3400073Y-8721306D1*
X3398149Y-8720334D1*
X3394325D1*
X3392423Y-8721307D1*
X3390500Y-8723208D1*
X3389549Y-8725131D1*
X3388599Y-8727983D1*
Y-8732781D1*
X3389550Y-8735655D1*
X3390501Y-8737556D1*
X3392424Y-8739479D1*
X3394325Y-8740430D1*
X3398150D1*
X3367102Y-8720335D2*
X3374774Y-8740430D1*
X3382423Y-8720334D1*
X3379549Y-8727033D2*
X3369976D1*
X3360927Y-8730858D2*
X3352327Y-8730859D1*
X3349453Y-8731831D1*
X3348480Y-8732782D1*
X3347530Y-8734683D1*
Y-8736607D1*
X3348481Y-8738508D1*
X3349453Y-8739481D1*
X3352327Y-8740431D1*
X3360927D1*
Y-8720335D1*
X3354228Y-8730858D2*
X3347529Y-8720335D1*
X3341354Y-8740432D2*
Y-8720336D1*
X3334655D1*
X3331781Y-8721309D1*
X3329858Y-8723210D1*
X3328907Y-8725134D1*
X3327956Y-8727985D1*
X3327957Y-8732783D1*
X3328907Y-8735657D1*
X3329858Y-8737558D1*
X3331782Y-8739481D1*
X3334656Y-8740432D1*
X3341354D1*
X3289916Y-8740434D2*
X3302341Y-8740433D1*
X3302340Y-8720337D1*
X3289915Y-8720338D1*
X3302340Y-8730860D2*
X3294691Y-8730861D1*
X3283741Y-8740434D2*
X3283740Y-8720338D1*
X3277041D1*
X3274167Y-8721311D1*
X3272244Y-8723212D1*
X3271293Y-8725136D1*
X3270343Y-8727988D1*
Y-8732785D1*
X3271294Y-8735659D1*
X3272244Y-8737560D1*
X3274168Y-8739483D1*
X3277042Y-8740434D1*
X3283741D1*
X3249819Y-8735660D2*
X3250770Y-8737561D1*
X3252694Y-8739484D1*
X3254595Y-8740435D1*
X3258419D1*
X3260343Y-8739484D1*
X3262244Y-8737561D1*
X3263217Y-8735659D1*
X3264167Y-8732785D1*
Y-8727988D1*
X3263216Y-8725136D1*
X3262243Y-8723213D1*
X3260342Y-8721311D1*
X3258419Y-8720339D1*
X3254594D1*
X3252693Y-8721312D1*
X3250770Y-8723213D1*
X3249819Y-8725136D1*
Y-8727988D1*
X3254594D1*
X3231219Y-8740436D2*
X3243644Y-8740435D1*
X3243643Y-8720339D1*
X3231218Y-8720340D1*
X3243643Y-8730863D2*
X3235994D1*
X1698470Y-8740430D2*
X1698469Y-8720334D1*
X1689847D1*
X1686973Y-8721307D1*
X1686023Y-8722258D1*
X1685072Y-8724159D1*
Y-8727033D1*
X1686023Y-8728956D1*
X1686973Y-8729907D1*
X1689848Y-8730858D1*
X1686974Y-8731830D1*
X1686023Y-8732781D1*
X1685072Y-8734682D1*
Y-8736606D1*
X1686023Y-8738507D1*
X1686974Y-8739480D1*
X1689848Y-8740430D1*
X1698470D1*
Y-8730857D2*
X1689848Y-8730858D1*
X1673149Y-8740431D2*
X1675072Y-8739480D1*
X1676973Y-8737557D1*
X1677946Y-8735655D1*
X1678897Y-8732781D1*
X1678896Y-8727984D1*
X1677946Y-8725132D1*
X1676973Y-8723209D1*
X1675072Y-8721307D1*
X1673148Y-8720335D1*
X1669324D1*
X1667422Y-8721308D1*
X1665499Y-8723209D1*
X1664548Y-8725132D1*
X1663598Y-8727984D1*
Y-8732782D1*
X1664549Y-8735656D1*
X1665499Y-8737557D1*
X1667423Y-8739480D1*
X1669324Y-8740431D1*
X1673149D1*
X1642101Y-8720335D2*
X1649773Y-8740431D1*
X1657422Y-8720335D1*
X1654548Y-8727034D2*
X1644975D1*
X1635926Y-8730859D2*
X1627326D1*
X1624452Y-8731832D1*
X1623479Y-8732782D1*
X1622529Y-8734684D1*
Y-8736607D1*
X1623479Y-8738508D1*
X1624452Y-8739481D1*
X1627326Y-8740432D1*
X1635926Y-8740431D1*
Y-8720335D1*
X1629227Y-8730859D2*
X1622528Y-8720336D1*
X1616353Y-8740432D2*
Y-8720336D1*
X1609654D1*
X1606780Y-8721309D1*
X1604857Y-8723210D1*
X1603906Y-8725134D1*
X1602955Y-8727985D1*
Y-8732783D1*
X1603906Y-8735657D1*
X1604857Y-8737558D1*
X1606780Y-8739481D1*
X1609654Y-8740432D1*
X1616353D1*
X1564915Y-8740433D2*
X1577340D1*
X1577339Y-8720337D1*
X1564915D1*
X1577339Y-8730860D2*
X1569690D1*
X1558739Y-8740433D2*
Y-8720337D1*
X1552040D1*
X1549166Y-8721310D1*
X1547243Y-8723211D1*
X1546292Y-8725135D1*
X1545342Y-8727987D1*
Y-8732784D1*
X1546292Y-8735658D1*
X1547243Y-8737559D1*
X1549167Y-8739483D1*
X1552041Y-8740433D1*
X1558739D1*
X1524818Y-8735659D2*
X1525769Y-8737560D1*
X1527692Y-8739483D1*
X1529594Y-8740434D1*
X1533418D1*
X1535342Y-8739483D1*
X1537243Y-8737560D1*
X1538216Y-8735658D1*
X1539166Y-8732784D1*
Y-8727987D1*
X1538215Y-8725135D1*
X1537242Y-8723212D1*
X1535341Y-8721310D1*
X1533418Y-8720338D1*
X1529593D1*
X1527692Y-8721311D1*
X1525769Y-8723212D1*
X1524818Y-8725135D1*
Y-8727987D1*
X1529593D1*
X1506218Y-8740434D2*
X1518643D1*
X1518642Y-8720338D1*
X1506218D1*
X1518642Y-8730861D2*
X1510993Y-8730862D1*
X3048468Y-8740431D2*
Y-8720335D1*
X3039846D1*
X3036972Y-8721308D1*
X3036021Y-8722258D1*
X3035071Y-8724160D1*
Y-8727034D1*
X3036021Y-8728957D1*
X3036972Y-8729908D1*
X3039846Y-8730858D1*
X3036972Y-8731831D1*
X3036021Y-8732782D1*
X3035071Y-8734683D1*
Y-8736606D1*
X3036021Y-8738508D1*
X3036972Y-8739480D1*
X3039846Y-8740431D1*
X3048468D1*
Y-8730858D2*
X3039846D1*
X3023147Y-8740431D2*
X3025070Y-8739480D1*
X3026971Y-8737557D1*
X3027944Y-8735656D1*
X3028895Y-8732782D1*
Y-8727984D1*
X3027944Y-8725132D1*
X3026971Y-8723209D1*
X3025070Y-8721308D1*
X3023147Y-8720335D1*
X3019322D1*
X3017421Y-8721308D1*
X3015498Y-8723209D1*
X3014547Y-8725132D1*
X3013596Y-8727984D1*
Y-8732782D1*
X3014547Y-8735656D1*
X3015498Y-8737557D1*
X3017421Y-8739480D1*
X3019322Y-8740431D1*
X3023147D1*
X2992100Y-8720335D2*
X2999771Y-8740431D1*
X3007421Y-8720335D1*
X3004547Y-8727034D2*
X2994974D1*
X2985924Y-8730858D2*
X2977324D1*
X2974450Y-8731831D1*
X2973477Y-8732782D1*
X2972527Y-8734683D1*
Y-8736606D1*
X2973477Y-8738508D1*
X2974450Y-8739480D1*
X2977324Y-8740431D1*
X2985924D1*
Y-8720335D1*
X2979225Y-8730858D2*
X2972527Y-8720335D1*
X2966351Y-8740431D2*
Y-8720335D1*
X2959652D1*
X2956778Y-8721308D1*
X2954855Y-8723209D1*
X2953904Y-8725132D1*
X2952954Y-8727984D1*
Y-8732782D1*
X2953904Y-8735656D1*
X2954855Y-8737557D1*
X2956778Y-8739480D1*
X2959652Y-8740431D1*
X2966351D1*
X2914913D2*
X2927338D1*
Y-8720335D1*
X2914913D1*
X2927338Y-8730858D2*
X2919688D1*
X2908737Y-8740431D2*
Y-8720335D1*
X2902039D1*
X2899165Y-8721308D1*
X2897241Y-8723209D1*
X2896291Y-8725132D1*
X2895340Y-8727984D1*
Y-8732782D1*
X2896291Y-8735656D1*
X2897241Y-8737557D1*
X2899165Y-8739480D1*
X2902039Y-8740431D1*
X2908737D1*
X2874816Y-8735656D2*
X2875767Y-8737557D1*
X2877690Y-8739480D1*
X2879592Y-8740431D1*
X2883416D1*
X2885340Y-8739480D1*
X2887241Y-8737557D1*
X2888214Y-8735656D1*
X2889164Y-8732782D1*
Y-8727984D1*
X2888214Y-8725132D1*
X2887241Y-8723209D1*
X2885340Y-8721308D1*
X2883416Y-8720335D1*
X2879592D1*
X2877690Y-8721308D1*
X2875767Y-8723209D1*
X2874816Y-8725132D1*
Y-8727984D1*
X2879592D1*
X2856216Y-8740431D2*
X2868641D1*
Y-8720335D1*
X2856216D1*
X2868641Y-8730858D2*
X2860991D1*
M02*
